<svg xmlns="http://www.w3.org/2000/svg" width="1600" height="700" viewBox="0 0 1600 700">
<defs><linearGradient id="bg" x2="1" y2="1"><stop stop-color="#071525"/><stop offset="1" stop-color="#02070e"/></linearGradient><linearGradient id="glow"><stop stop-color="#18c8f4"/><stop offset="1" stop-color="#168cf0"/></linearGradient><filter id="blur"><feGaussianBlur stdDeviation="45"/></filter></defs>
<rect width="1600" height="700" fill="url(#bg)"/><circle cx="1380" cy="40" r="240" fill="#18c8f4" opacity=".10" filter="url(#blur)"/>
<g opacity=".7" stroke="#16324b"><path d="M0 570H1600M0 450H1600M0 330H1600M0 210H1600"/><path d="M200 0V700M400 0V700M600 0V700M800 0V700M1000 0V700M1200 0V700M1400 0V700"/></g>
<text x="90" y="100" fill="#62dcff" font-family="Arial" font-size="20" font-weight="700" letter-spacing="5">SISTEMAS A MEDIDA</text><text x="90" y="150" fill="#f5f8fc" font-family="Arial" font-size="42" font-weight="700">Una operación más clara.</text><text x="90" y="190" fill="#91a3b8" font-family="Arial" font-size="19">Procesos, datos y decisiones reunidos en una sola herramienta.</text>
<g transform="translate(90 250)"><rect width="1420" height="380" rx="28" fill="#091522" stroke="#23455f"/><rect x="0" y="0" width="230" height="380" rx="28" fill="#07101b"/><rect x="30" y="30" width="170" height="34" rx="9" fill="#168cf0"/><text x="48" y="53" fill="white" font-family="Arial" font-size="15">Resumen</text>
<g fill="#60758b" font-family="Arial" font-size="14"><text x="30" y="105">Clientes</text><text x="30" y="145">Operaciones</text><text x="30" y="185">Inventario</text><text x="30" y="225">Reportes</text><text x="30" y="265">Configuración</text></g>
<g transform="translate(265 35)"><rect width="250" height="88" rx="15" fill="#0e2236"/><text x="22" y="30" fill="#7f95aa" font-family="Arial" font-size="14">Ingresos</text><text x="22" y="66" fill="white" font-family="Arial" font-size="27" font-weight="700">$4.820.000</text><rect x="280" width="250" height="88" rx="15" fill="#0e2236"/><text x="302" y="30" fill="#7f95aa" font-family="Arial" font-size="14">Pedidos</text><text x="302" y="66" fill="white" font-family="Arial" font-size="27" font-weight="700">156</text><rect x="560" width="250" height="88" rx="15" fill="#0e2236"/><text x="582" y="30" fill="#7f95aa" font-family="Arial" font-size="14">Pendientes</text><text x="582" y="66" fill="#18c8f4" font-family="Arial" font-size="27" font-weight="700">12</text><rect x="840" width="250" height="88" rx="15" fill="#0e2236"/><text x="862" y="30" fill="#7f95aa" font-family="Arial" font-size="14">Eficiencia</text><text x="862" y="66" fill="#20d27b" font-family="Arial" font-size="27" font-weight="700">+28%</text>
<rect y="115" width="760" height="220" rx="18" fill="#07111d" stroke="#18334b"/><text x="22" y="145" fill="white" font-family="Arial" font-size="16" font-weight="700">Actividad de la operación</text><polyline points="25,285 95,250 165,268 235,215 305,230 375,175 445,195 515,145 585,160 655,120 730,135" fill="none" stroke="#18c8f4" stroke-width="6"/><polyline points="25,300 95,285 165,292 235,275 305,282 375,255 445,263 515,235 585,245 655,210 730,220" fill="none" stroke="#20d27b" stroke-width="4" opacity=".8"/>
<rect x="785" y="115" width="305" height="220" rx="18" fill="#07111d" stroke="#18334b"/><text x="810" y="145" fill="white" font-family="Arial" font-size="16" font-weight="700">Indicadores</text><g fill="#168cf0"><rect x="815" y="180" width="220" height="14" rx="7"/><rect x="815" y="220" width="170" height="14" rx="7"/><rect x="815" y="260" width="195" height="14" rx="7"/></g></g></g></g></svg>